<?xml version="1.0" encoding="UTF-8" standalone="no" ?>
<!DOCTYPE svg PUBLIC "-//W3C//DTD SVG 1.1//EN" "http://www.w3.org/Graphics/SVG/1.1/DTD/svg11.dtd">
<svg xmlns="http://www.w3.org/2000/svg" xmlns:xlink="http://www.w3.org/1999/xlink" version="1.1" width="1080" height="1080" viewBox="0 0 1080 1080" xml:space="preserve">
<desc>Created with Fabric.js 5.2.4</desc>
<defs>
</defs>
<g transform="matrix(1 0 0 1 540 540)" id="e5c3280e-723a-4cac-948f-02451112f56d"  >
<rect style="stroke: none; stroke-width: 1; stroke-dasharray: none; stroke-linecap: butt; stroke-dashoffset: 0; stroke-linejoin: miter; stroke-miterlimit: 4; fill: rgb(255,255,255); fill-rule: nonzero; opacity: 1; visibility: hidden;" vector-effect="non-scaling-stroke"  x="-540" y="-540" rx="0" ry="0" width="1080" height="1080" />
</g>
<g transform="matrix(1 0 0 1 540 540)" id="3541c07d-5db4-41e0-b3cd-31ec0ce2fdcc"  >
</g>
<g transform="matrix(13.26 0 0 11.9 536.83 440.41)" id="6a276f89-f5db-4bf9-a618-3211992f1e78"  >
<polygon style="stroke: rgb(0,0,0); stroke-width: 0; stroke-dasharray: none; stroke-linecap: butt; stroke-dashoffset: 0; stroke-linejoin: miter; stroke-miterlimit: 4; fill: rgb(255,255,255); fill-rule: nonzero; opacity: 1;" vector-effect="non-scaling-stroke"  points="-37.43,32.41 0,-32.41 37.43,32.41 " />
</g>
<g transform="matrix(13.37 0 0 4.4 541.27 839.72)" id="1c5e2a40-368f-4dad-b153-24ad4ba7dbff"  >
<rect style="stroke: rgb(0,0,0); stroke-width: 0; stroke-dasharray: none; stroke-linecap: butt; stroke-dashoffset: 0; stroke-linejoin: miter; stroke-miterlimit: 4; fill: rgb(255,255,255); fill-rule: nonzero; opacity: 1;" vector-effect="non-scaling-stroke"  x="-37.167" y="-37.167" rx="0" ry="0" width="74.334" height="74.334" />
</g>
<g transform="matrix(1 0 0 1 540 540)"  >
<path style="stroke: rgb(0,0,0); stroke-width: 0; stroke-dasharray: none; stroke-linecap: butt; stroke-dashoffset: 0; stroke-linejoin: miter; stroke-miterlimit: 4; fill: rgb(0,0,0); fill-rule: nonzero; opacity: 1;" vector-effect="non-scaling-stroke"  transform=" translate(-513, -513)" d="M 1025 564 C 1025 717.582764 1025 871.165527 1025 1025 C 914.977478 1025 804.954834 1025 694.828979 1024.87085 C 698.748352 1023.637939 703.570068 1024.672607 706.811523 1019.783569 C 705.879028 1019.074219 704.328491 1018.502991 703.885681 1017.460999 C 700.581055 1009.68573 693.792114 1008.361084 686.516846 1007.391907 C 651.621948 1002.742981 616.754578 1004.050659 581.871826 1007.496826 C 560.643372 1009.594116 539.362122 1011.019836 518.032166 1009.699097 C 496.867493 1008.38855 475.752655 1009.922729 454.635101 1010.486877 C 426.329926 1011.243103 398.053345 1012.132019 369.888123 1008.463684 C 351.890015 1006.119568 333.927338 1002.728638 315.743622 1003.412598 C 291.300446 1004.332031 266.873291 1005.856018 242.472519 1007.779724 C 230.580246 1008.717224 222.108795 1014.487976 215.177109 1023.694702 C 216.20752 1024.171143 217.10376 1024.585571 218 1025 C 145.709457 1025 73.418915 1025 1 1025 C 1 853.977417 1 682.954773 1.245973 511.620605 C 2.922249 512.56897 4.197528 511.912415 5.570596 511.101868 C 7.776034 509.799927 10.37324 508.900818 12.750623 509.498383 C 20.546629 511.457916 24.90086 507.539185 27.561995 501.079926 C 31.304296 491.996429 38.639996 486.421692 45.93573 480.509491 C 55.602867 472.675629 64.943306 464.284821 72.59613 454.468811 C 81.152664 443.493591 88.991501 431.938385 96.957306 420.507202 C 112.119026 398.749603 123.118637 374.619354 138.07016 352.762634 C 149.017288 336.759705 158.63739 319.809448 169.681686 303.815277 C 182.542877 285.189911 194.788467 266.192566 204.146088 245.511917 C 207.932449 237.143936 213.012207 229.521454 217.366379 221.483749 C 224.631485 208.072495 235.15184 197.117004 245.073883 185.683105 C 259.241119 169.357178 272.91626 152.609467 286.516235 135.79718 C 294.070526 126.458588 301.167786 116.791679 307.975403 106.973579 C 315.89093 95.557587 319.881897 82.212158 323.048065 68.746834 C 324.008545 64.661896 325.001617 60.665318 327.24884 57.076157 C 331.992432 49.499977 335.407166 41.072868 342.287354 34.868309 C 344.577759 32.80283 345.934631 29.725899 347.83255 27.19709 C 353.790375 19.258821 350.971344 10.778846 349.392181 2.388678 C 349.292145 1.857267 348.48056 1.459789 348 1 C 459.022614 1 570.045227 1 681.336548 1.255084 C 679.933044 6.977783 679.921143 12.584951 680.317627 18.203936 C 680.383606 19.138826 680.898621 20.142494 681.467285 20.924486 C 684.30658 24.828857 687.01709 28.856501 690.167236 32.499775 C 701.639526 45.767723 709.726013 60.945267 715.918274 77.230385 C 720.050598 88.098083 726.312195 97.799141 733.760986 106.514496 C 737.740112 111.170189 741.047546 115.899368 743.441406 121.443871 C 750.596313 138.015213 759.848511 153.594376 770.017212 168.277191 C 779.706055 182.267044 786.299683 197.592743 793.92572 212.476974 C 803.476196 231.117477 811.03717 250.71492 820.888794 269.25827 C 827.536072 281.770264 835.042847 293.773773 841.673462 306.269958 C 848.389954 318.928162 856.172241 330.956268 863.251038 343.40094 C 873.43573 361.30603 887.57782 376.744446 896.686218 395.421356 C 904.068481 410.558685 913.657227 424.428558 922.140564 438.93335 C 929.108215 450.846558 935.890259 462.904602 944.368652 473.898895 C 953.209839 485.363495 961.5177 497.232727 968.848083 509.72879 C 971.701294 514.592468 973.524902 519.997253 976.239075 524.998779 C 983.889893 539.097046 996.226196 549.493591 1005.220215 562.504456 C 1007.021179 565.10968 1009.563293 565.665283 1012.734558 564.7005 C 1016.707275 563.49176 1020.822876 562.623169 1025 564 M 584.121948 751.331604 C 566.856689 757.633057 548.832764 761.805176 531.929016 769.835205 C 691.070129 804.690247 849.478455 841.696228 1008.423279 876.464111 C 1009.249023 873.69281 1008.194031 872.243286 1007.389221 870.882385 C 993.623901 847.606018 979.796448 824.366333 965.995972 801.110718 C 950.072571 774.277771 934.112732 747.466187 918.26239 720.590149 C 906.547852 700.726685 895.05719 680.731079 883.33313 660.873291 C 868.810425 636.275574 854.116211 611.779175 839.557678 587.202454 C 823.989258 560.921021 808.552063 534.561646 792.947327 508.301819 C 778.029297 483.19754 762.905579 458.215454 747.99115 433.109039 C 734.77417 410.860199 721.781311 388.478271 708.5802 366.219849 C 688.764954 332.809052 668.827454 299.470795 648.993408 266.071106 C 635.096619 242.669586 621.324646 219.194016 607.424683 195.794434 C 595.896057 176.386765 584.152466 157.106155 572.704163 137.651489 C 560.583496 117.054276 548.701721 96.316528 536.706543 75.645378 C 535.807251 74.095634 534.913818 72.463608 531.171387 73.159569 C 605.078613 281.092804 676.379578 489.501373 749.096313 698.045105 C 694.300964 715.754883 639.550354 733.450195 584.121948 751.331604 M 202.58786 658.089478 C 210.586975 649.434082 218.939804 641.075134 226.500275 632.052246 C 237.166534 619.322815 248.841263 607.529053 259.773621 595.051453 C 272.243927 580.818481 285.071869 566.897461 297.819 552.908875 C 312.347961 536.964783 326.934052 521.07251 341.543854 505.202454 C 350.885895 495.054657 360.368225 485.035858 369.693787 474.873108 C 383.153259 460.205353 396.543091 445.473602 409.93277 430.741974 C 418.861786 420.918091 427.735321 411.043762 436.64032 401.197998 C 442.952179 394.219269 449.275116 387.250488 455.608643 380.260071 C 464.385132 385.775909 470.961273 393.423279 478.187988 400.21347 C 495.013885 416.023102 511.374756 432.326447 528.198547 448.154053 C 542.238464 461.36264 556.022644 474.844696 570.121887 487.999878 C 582.40387 499.459503 594.220276 511.416626 606.348022 523.043762 C 610.597412 527.117737 615.161011 530.863953 619.985291 535.116028 C 621.199829 531.259155 619.611023 528.553467 618.810181 525.826599 C 612.545471 504.494537 606.075867 483.222321 599.878235 461.871033 C 592.202698 435.427795 584.691895 408.936523 577.176392 382.447113 C 569.842407 356.597412 562.612061 330.718292 555.299744 304.862366 C 548.300476 280.113556 541.255615 255.37764 534.228455 230.636734 C 527.341125 206.388412 520.438293 182.144485 513.565063 157.892181 C 506.013184 131.245163 498.492828 104.589188 490.938416 77.942894 C 490.40332 76.055504 490.144012 73.553162 487.926605 73.163292 C 485.45343 72.72847 484.957642 75.373024 483.975525 77.007233 C 466.267761 106.472694 448.551849 135.933273 430.890137 165.426315 C 409.295593 201.486771 387.76123 237.583237 366.179138 273.651154 C 348.789307 302.712952 331.342712 331.740753 313.966034 360.810364 C 294.704285 393.033478 275.492767 425.28656 256.260468 457.527252 C 235.581131 492.193787 214.907547 526.86377 194.223083 561.527283 C 172.690796 597.611572 151.1586 633.695862 129.607407 669.768921 C 113.501228 696.727905 97.438332 723.713196 81.223061 750.606506 C 61.584774 783.176819 41.792435 815.654358 22.103256 848.194092 C 19.148893 853.076721 16.3932 858.079468 13.545599 863.026672 C 16.690245 862.500305 18.361799 860.56604 20.206718 858.715454 C 34.164673 844.714417 46.862797 829.584473 59.951046 814.798828 C 72.612976 800.494751 85.590919 786.470398 98.425125 772.318665 C 112.023376 757.324585 125.64299 742.349731 139.200012 727.31842 C 146.543457 719.176392 153.896729 711.054382 161.435883 703.083923 C 175.240173 688.489807 188.557434 673.43512 202.58786 658.089478 M 306.811096 642.310486 C 294.192535 655.332703 281.303711 668.08136 268.797119 681.225769 C 243.21347 708.114258 216.203552 733.610413 190.620941 760.526062 C 169.762878 782.471069 147.886383 803.427368 126.842896 825.215027 C 101.649033 851.300049 75.558998 876.522705 50.480007 902.734009 C 49.176914 904.095947 47.141041 905.084839 47.43602 908.073425 C 53.417847 908.575134 59.443027 909.278625 65.487534 909.547119 C 78.943161 910.144897 92.413223 909.878479 105.888535 910.346008 C 131.802185 911.245117 157.747955 911.303406 183.663971 912.565918 C 198.610672 913.294128 213.577911 912.147034 228.562881 913.441467 C 242.126068 914.613098 255.796844 913.222778 269.449768 914.429138 C 283.012939 915.627563 296.682007 914.298828 310.339386 915.434509 C 325.068329 916.659302 339.903992 915.302612 354.726288 916.444275 C 369.968689 917.618286 385.316895 916.226318 400.640533 917.473816 C 414.54776 918.606018 428.547913 917.322754 442.54007 918.439148 C 457.606171 919.641235 472.774811 918.213623 487.925598 919.460266 C 502.153473 920.631104 516.482239 919.264954 530.799377 920.392212 C 547.033997 921.670471 563.364441 920.222473 579.682556 921.418091 C 595.411499 922.570496 611.247498 921.254395 627.048218 922.475098 C 640.796509 923.53717 654.619385 922.269775 668.444519 923.433533 C 682.838135 924.645203 697.340454 923.317261 711.828491 924.445374 C 727.063293 925.631714 742.403687 924.140686 757.720886 925.46698 C 770.786255 926.598389 783.951599 925.362915 797.110352 926.406067 C 812.176147 927.600464 827.349487 926.221558 842.4953 927.472717 C 856.231445 928.607361 870.076904 927.914551 883.875977 928.292542 C 904.155457 928.848022 924.452942 929.671509 944.755371 929.620972 C 947.919495 929.613098 951.04657 929.797485 954.197876 930.254517 C 958.785095 930.919739 963.414551 930.855164 968.987244 930.189697 C 966.480652 928.26123 964.79834 927.773926 963.00116 927.304565 C 943.586304 922.23291 923.907715 918.360779 904.307312 914.11731 C 872.250061 907.176758 840.253662 899.953064 808.253662 892.750916 C 776.566406 885.619202 744.907471 878.362 713.234314 871.167847 C 670.398254 861.438171 627.551636 851.754883 584.726196 841.978577 C 549.175842 833.863098 513.667542 825.562683 478.108063 817.487793 C 433.309448 807.314697 388.460663 797.361633 343.685974 787.085144 C 339.124908 786.03833 334.099487 786.251343 329.80835 783.36853 C 331.275757 776.89325 332.580322 770.568787 334.148682 764.310364 C 342.703522 730.173035 351.329041 696.053406 359.918732 661.924805 C 367.373352 632.305969 374.833588 602.688538 382.2099 573.050171 C 382.68692 571.133606 383.882507 568.916077 380.994141 566.326599 C 356.415924 591.506348 331.864105 616.659058 306.811096 642.310486 z" stroke-linecap="round" />
</g>
</svg>